<svg width="25" height="24" viewBox="0 0 25 24" fill="none" xmlns="http://www.w3.org/2000/svg">
<path d="M12.3335 2V6M14.3335 4L10.3335 4" stroke="#141B34" stroke-width="1.5" stroke-linecap="round" stroke-linejoin="round"/>
<path d="M8.83472 8.79902L12.3335 6L15.8323 8.79902C17.0506 9.77367 17.3335 10.3623 17.3335 11.9225V22H7.3335V11.9225C7.3335 10.3623 7.61641 9.77367 8.83472 8.79902Z" stroke="#141B34" stroke-width="1.5" stroke-linecap="round" stroke-linejoin="round"/>
<path d="M17.3335 12L19.1224 12.8944C20.1982 13.4323 20.7361 13.7013 21.0348 14.1846C21.3335 14.6679 21.3335 15.2693 21.3335 16.4721V20C21.3335 20.9428 21.3335 21.4142 21.0406 21.7071C20.7477 22 20.2763 22 19.3335 22H17.3335" stroke="#141B34" stroke-width="1.5" stroke-linecap="round" stroke-linejoin="round"/>
<path d="M7.3335 12L5.54464 12.8944C4.46881 13.4323 3.93089 13.7013 3.63219 14.1846C3.3335 14.6679 3.3335 15.2693 3.3335 16.4721V20C3.3335 20.9428 3.3335 21.4142 3.62639 21.7071C3.91928 22 4.39069 22 5.3335 22H7.3335" stroke="#141B34" stroke-width="1.5" stroke-linecap="round" stroke-linejoin="round"/>
<path d="M10.3335 22V18C10.3335 16.8954 11.2289 16 12.3335 16C13.4381 16 14.3335 16.8954 14.3335 18V22" stroke="#141B34" stroke-width="1.5" stroke-linecap="round" stroke-linejoin="round"/>
<path d="M12.3415 11L12.3325 11" stroke="#141B34" stroke-width="2" stroke-linecap="round" stroke-linejoin="round"/>
</svg>
