<svg width="64" height="64" viewBox="0 0 64 64" fill="none" xmlns="http://www.w3.org/2000/svg">
<path d="M31.8126 63.64C26.8086 63.6388 21.8754 62.4575 17.4136 60.192C12.9518 57.9264 9.08724 54.6405 6.13373 50.601C3.18022 46.5616 1.22102 41.8826 0.415248 36.9438C-0.390528 32.0051 -0.0201694 26.946 1.49625 22.1773C3.01267 17.4085 5.6324 13.0647 9.14269 9.49844C12.653 5.9322 16.9549 3.24413 21.699 1.6525C26.4432 0.0608734 31.4958 -0.389428 36.4467 0.338163C41.3975 1.06575 46.107 2.95073 50.1926 5.84C50.4451 5.9734 50.6662 6.15934 50.8408 6.38531C51.0155 6.61128 51.1397 6.87203 51.2052 7.15004C51.2707 7.42804 51.2758 7.71684 51.2203 7.997C51.1648 8.27716 51.05 8.54219 50.8835 8.77425C50.717 9.00632 50.5028 9.20003 50.2552 9.34237C50.0076 9.4847 49.7323 9.57236 49.448 9.59943C49.1637 9.6265 48.8769 9.59237 48.6069 9.49932C48.3368 9.40628 48.0899 9.25648 47.8826 9.06C42.7882 5.45748 36.6317 3.67001 30.4001 3.98421C24.1686 4.29841 18.2231 6.69609 13.5169 10.7928C8.81076 14.8895 5.6166 20.4478 4.44661 26.5766C3.27662 32.7054 4.19858 39.0495 7.06467 44.5917C9.93075 50.134 14.5749 54.5532 20.2525 57.1409C25.93 59.7285 32.3121 60.3347 38.3753 58.8622C44.4385 57.3896 49.8316 53.9237 53.6898 49.0201C57.548 44.1166 59.6479 38.0595 59.6526 31.82C59.6533 29.1285 59.266 26.451 58.5026 23.87C58.4174 23.3864 58.5131 22.8884 58.7715 22.4708C59.0299 22.0532 59.4328 21.7453 59.9036 21.6057C60.3744 21.466 60.88 21.5045 61.3243 21.7137C61.7686 21.9229 62.1203 22.2882 62.3126 22.74C63.7244 27.4891 64.008 32.5021 63.141 37.3801C62.274 42.2581 60.2803 46.8664 57.3185 50.8381C54.3567 54.8098 50.5087 58.0352 46.0807 60.2577C41.6527 62.4802 36.767 63.6384 31.8126 63.64Z" fill="white"/>
<path d="M25.9626 26.68C25.4322 26.68 24.9234 26.4693 24.5484 26.0942C24.1733 25.7192 23.9626 25.2104 23.9626 24.68C23.9826 21.06 22.3426 21.06 21.5526 21.06C20.7626 21.06 19.1226 21.06 19.1226 24.69C19.1226 25.2205 18.9119 25.7292 18.5368 26.1042C18.1617 26.4793 17.653 26.69 17.1226 26.69C16.5922 26.69 16.0834 26.4793 15.7084 26.1042C15.3333 25.7292 15.1226 25.2205 15.1226 24.69C15.1226 17.63 20.0226 17.08 21.5226 17.08C23.0226 17.08 27.9226 17.63 27.9226 24.69C27.9201 25.2119 27.7137 25.7121 27.3475 26.0838C26.9813 26.4556 26.4843 26.6696 25.9626 26.68Z" fill="white"/>
<path d="M46.3626 26.68C45.8322 26.68 45.3234 26.4693 44.9484 26.0942C44.5733 25.7192 44.3626 25.2104 44.3626 24.68C44.3826 21.06 42.7426 21.06 41.9526 21.06C41.1626 21.06 39.5226 21.06 39.5226 24.69C39.5226 25.2205 39.3119 25.7292 38.9368 26.1042C38.5617 26.4793 38.053 26.69 37.5226 26.69C36.9922 26.69 36.4834 26.4793 36.1084 26.1042C35.7333 25.7292 35.5226 25.2205 35.5226 24.69C35.5226 17.63 40.4226 17.08 41.9226 17.08C43.4226 17.08 48.3226 17.63 48.3226 24.69C48.3201 25.2119 48.1137 25.7121 47.7475 26.0838C47.3813 26.4556 46.8843 26.6696 46.3626 26.68Z" fill="white"/>
<path d="M31.4226 45.37C30.8944 45.3704 30.3876 45.1619 30.0126 44.79L24.0826 38.85C23.854 38.6773 23.6652 38.4574 23.5289 38.2053C23.3927 37.9533 23.3122 37.6749 23.2929 37.389C23.2736 37.1031 23.316 36.8164 23.4171 36.5483C23.5183 36.2802 23.6759 36.037 23.8792 35.8351C24.0825 35.6332 24.3269 35.4774 24.5957 35.3781C24.8645 35.2789 25.1515 35.2386 25.4372 35.2599C25.723 35.2812 26.0008 35.3637 26.2519 35.5018C26.503 35.6398 26.7215 35.8302 26.8926 36.06L31.4226 40.59L35.9526 36.06C36.3286 35.7096 36.825 35.5175 37.3389 35.5233C37.8528 35.5292 38.3448 35.7327 38.7126 36.0916C39.0805 36.4505 39.2961 36.9372 39.3148 37.4508C39.3334 37.9644 39.1535 38.4655 38.8126 38.85L32.8126 44.79C32.4425 45.1571 31.9438 45.3652 31.4226 45.37Z" fill="white"/>
</svg>
