<svg width="24" height="25" viewBox="0 0 24 25" fill="none" xmlns="http://www.w3.org/2000/svg">
<path d="M7 8L9.94202 9.73943C11.6572 10.7535 12.3428 10.7535 14.058 9.73943L17 8" stroke="#E0E0E0" stroke-width="1.5" stroke-linecap="round" stroke-linejoin="round"/>
<path d="M10.5 20C10.0337 19.9939 9.56682 19.985 9.09883 19.9732C5.95033 19.8941 4.37608 19.8545 3.24496 18.7184C2.11383 17.5823 2.08114 16.0487 2.01577 12.9814C1.99475 11.9951 1.99474 11.0147 2.01576 10.0284C2.08114 6.96113 2.11382 5.42748 3.24495 4.29139C4.37608 3.1553 5.95033 3.11573 9.09882 3.03658C11.0393 2.9878 12.9607 2.98781 14.9012 3.03659C18.0497 3.11574 19.6239 3.15532 20.755 4.29141C21.8862 5.42749 21.9189 6.96114 21.9842 10.0284C21.9939 10.4825 21.9991 10.6965 21.9999 11" stroke="#E0E0E0" stroke-width="1.5" stroke-linecap="round" stroke-linejoin="round"/>
<path d="M19 17.5C19 18.3284 18.3284 19 17.5 19C16.6716 19 16 18.3284 16 17.5C16 16.6716 16.6716 16 17.5 16C18.3284 16 19 16.6716 19 17.5ZM19 17.5V18C19 18.8284 19.6716 19.5 20.5 19.5C21.3284 19.5 22 18.8284 22 18V17.5C22 15.0147 19.9853 13 17.5 13C15.0147 13 13 15.0147 13 17.5C13 19.9853 15.0147 22 17.5 22" stroke="#E0E0E0" stroke-width="1.5" stroke-linecap="round" stroke-linejoin="round"/>
</svg>
