<svg width="24" height="25" viewBox="0 0 24 25" fill="none" xmlns="http://www.w3.org/2000/svg">
<path d="M21 12.25C21 11.4216 20.3284 10.75 19.5 10.75C18.6716 10.75 18 11.4216 18 12.25C18 13.0784 18.6716 13.75 19.5 13.75C20.3284 13.75 21 13.0784 21 12.25Z" stroke="#ffffff" stroke-width="1.5"/>
<path d="M13.5 12.25C13.5 11.4216 12.8284 10.75 12 10.75C11.1716 10.75 10.5 11.4216 10.5 12.25C10.5 13.0784 11.1716 13.75 12 13.75C12.8284 13.75 13.5 13.0784 13.5 12.25Z" stroke="#ffffff" stroke-width="1.5"/>
<path d="M6 12.25C6 11.4216 5.32843 10.75 4.5 10.75C3.67157 10.75 3 11.4216 3 12.25C3 13.0784 3.67157 13.75 4.5 13.75C5.32843 13.75 6 13.0784 6 12.25Z" stroke="#ffffff" stroke-width="1.5"/>
</svg>
