<svg width="24" height="25" viewBox="0 0 24 25" fill="none" xmlns="http://www.w3.org/2000/svg">
<path d="M2.5 12.5C2.5 8.02166 2.5 5.78249 3.89124 4.39124C5.28249 3 7.52166 3 12 3C16.4783 3 18.7175 3 20.1088 4.39124C21.5 5.78249 21.5 8.02166 21.5 12.5C21.5 16.9783 21.5 19.2175 20.1088 20.6088C18.7175 22 16.4783 22 12 22C7.52166 22 5.28249 22 3.89124 20.6088C2.5 19.2175 2.5 16.9783 2.5 12.5Z" stroke="white" stroke-width="1.5" stroke-linejoin="round"/>
<path d="M10.3938 12.2779C10.8038 12.3365 11.1838 12.0517 11.2424 11.6416C11.3011 11.2316 11.0162 10.8517 10.6062 10.793L10.3938 12.2779ZM17.5 10.75C17.9142 10.75 18.25 10.4142 18.25 10C18.25 9.58579 17.9142 9.25 17.5 9.25V10.75ZM14.25 6.5C14.25 6.08579 13.9142 5.75 13.5 5.75C13.0858 5.75 12.75 6.08579 12.75 6.5H14.25ZM12.75 15C12.75 16.5188 11.5188 17.75 10 17.75V19.25C12.3472 19.25 14.25 17.3472 14.25 15H12.75ZM10 17.75C8.48122 17.75 7.25 16.5188 7.25 15H5.75C5.75 17.3472 7.65279 19.25 10 19.25V17.75ZM7.25 15C7.25 13.4812 8.48122 12.25 10 12.25V10.75C7.65279 10.75 5.75 12.6528 5.75 15H7.25ZM10 12.25C10.1341 12.25 10.2656 12.2595 10.3938 12.2779L10.6062 10.793C10.4078 10.7646 10.2054 10.75 10 10.75V12.25ZM17.5 9.25C16.7254 9.25 15.8924 8.9308 15.2559 8.39923C14.62 7.86819 14.25 7.18835 14.25 6.5H12.75C12.75 7.74465 13.4135 8.81481 14.2944 9.55052C15.1746 10.2857 16.3416 10.75 17.5 10.75V9.25ZM12.75 6.5V15H14.25V6.5H12.75Z" fill="white"/>
</svg>
