<svg width="25" height="25" viewBox="0 0 25 25" fill="none" xmlns="http://www.w3.org/2000/svg">
<path d="M18.2001 21.8351C17.0281 21.9998 15.4996 21.9998 13.4501 21.9998H11.5501C7.51955 21.9998 5.5043 21.9998 4.25218 20.7476C3.00006 19.4955 3.00006 17.4803 3.00006 13.4498V11.5498C3.00006 7.51925 3.00006 5.50399 4.25218 4.25187C5.5043 2.99976 7.51955 2.99976 11.5501 2.99976H13.4501C17.4806 2.99976 19.4958 2.99976 20.7479 4.25187C22.0001 5.50399 22.0001 7.51925 22.0001 11.5498V13.4498C22.0001 14.658 22.0001 15.6851 21.9663 16.5648C21.9393 17.2699 21.9258 17.6224 21.6588 17.7541C21.3918 17.8859 21.0932 17.6746 20.4958 17.252L19.1501 16.2998" stroke="#242424" stroke-width="1.5" stroke-linecap="round" stroke-linejoin="round"/>
<path d="M15.4453 12.8948C15.2686 13.5215 14.4333 13.9644 12.7629 14.8502C11.148 15.7064 10.3406 16.1346 9.68992 15.9625C9.4209 15.8913 9.1758 15.7562 8.97812 15.57C8.5 15.1198 8.5 14.2465 8.5 12.5C8.5 10.7535 8.5 9.88018 8.97812 9.42995C9.1758 9.24381 9.4209 9.10868 9.68992 9.03753C10.3406 8.86544 11.148 9.29357 12.7629 10.1498C14.4333 11.0356 15.2686 11.4785 15.4453 12.1052C15.5182 12.3639 15.5182 12.6361 15.4453 12.8948Z" stroke="#242424" stroke-width="1.5" stroke-linejoin="round"/>
</svg>
