<svg width="24" height="25" viewBox="0 0 24 25" fill="none" xmlns="http://www.w3.org/2000/svg">
<path d="M12 22.5C17.5228 22.5 22 18.0228 22 12.5C22 6.97715 17.5228 2.5 12 2.5C6.47715 2.5 2 6.97715 2 12.5C2 13.8789 2.27907 15.1926 2.78382 16.3877C3.06278 17.0481 3.20226 17.3784 3.21953 17.628C3.2368 17.8776 3.16334 18.1521 3.01642 18.7012L2 22.5L5.79877 21.4836C6.34788 21.3367 6.62244 21.2632 6.87202 21.2805C7.12161 21.2977 7.45185 21.4372 8.11235 21.7162C9.30745 22.2209 10.6211 22.5 12 22.5Z" stroke="white" stroke-width="1.5" stroke-linejoin="round"/>
<path d="M8.58815 12.8773L9.45909 11.7956C9.82616 11.3397 10.2799 10.9153 10.3155 10.3083C10.3244 10.1549 10.2166 9.46657 10.0008 8.08986C9.91601 7.54881 9.41086 7.5 8.97332 7.5C8.40314 7.5 8.11805 7.5 7.83495 7.62931C7.47714 7.79275 7.10979 8.25231 7.02917 8.63733C6.96539 8.94196 7.01279 9.15187 7.10759 9.57169C7.51023 11.3548 8.45481 13.1158 9.91948 14.5805C11.3842 16.0452 13.1452 16.9898 14.9283 17.3924C15.3481 17.4872 15.558 17.5346 15.8627 17.4708C16.2477 17.3902 16.7072 17.0229 16.8707 16.665C17 16.3819 17 16.0969 17 15.5267C17 15.0891 16.9512 14.584 16.4101 14.4992C15.0334 14.2834 14.3451 14.1756 14.1917 14.1845C13.5847 14.2201 13.1603 14.6738 12.7044 15.0409L11.6227 15.9118" stroke="white" stroke-width="1.5"/>
</svg>
